<svg width="170" height="125" viewBox="0 0 170 125" fill="none" xmlns="http://www.w3.org/2000/svg">
<path d="M142.672 42.8118C144.389 42.8118 146.081 43.2348 147.823 43.1353C148.246 43.1104 148.644 43.3094 149.042 43.409C152.426 44.3047 155.461 45.8474 158.148 48.1116C160.114 49.7787 161.557 51.8189 162.478 54.2573C163.349 56.4967 163.921 58.7858 164.07 61.1744C164.095 61.3735 164.17 61.5476 164.269 61.7218C164.916 62.6922 165.488 63.7123 165.911 64.7822C166.509 66.3996 167.454 67.8924 167.827 69.6093C168.3 71.7242 168.748 73.8391 168.997 76.0038C169.221 77.9944 169.395 80.0098 169.42 82.0003C169.445 83.4434 169.246 84.8368 168.798 86.2053C168.549 87.0015 168.424 87.7977 168.375 88.5939C168.35 88.8676 168.25 89.0916 168.101 89.3155C166.583 91.5797 164.817 93.7195 163.349 96.0335C163.174 96.2823 162.926 96.4565 162.702 96.6556C159.293 99.4423 155.834 102.204 152.575 105.165C151.555 106.111 150.46 106.882 149.216 107.529C147.25 108.574 145.409 109.818 143.543 111.062C138.417 114.446 140.259 113.675 134.038 115.715C129.634 117.158 125.255 118.701 120.851 120.169C118.413 120.99 115.924 121.662 113.337 122.01C110.102 122.458 106.892 123.154 103.658 123.577C102.563 123.727 101.493 123.776 100.398 123.826C98.6317 123.901 96.8899 124.274 95.1234 124.224C93.7549 124.199 92.3864 124.1 91.0428 123.976C90.0724 123.876 89.1518 124.075 88.2312 124.224C86.7383 124.473 85.2454 124.548 83.7276 124.647C80.3437 124.896 76.9598 124.797 73.5759 124.722C72.8295 124.697 72.083 124.747 71.3366 124.747C68.7986 124.797 66.3105 124.498 63.7974 124.1C62.0308 123.826 60.2394 123.677 58.4728 123.304C56.6067 122.906 54.6908 122.657 52.8495 122.035C52.75 122.01 52.6256 121.985 52.5012 121.985C50.1374 122.184 47.8981 121.587 45.6588 120.94C44.0912 120.492 42.5734 119.845 41.1054 119.149C40.0106 118.626 38.8163 118.303 37.6469 117.979C37.2985 117.88 36.9253 117.855 36.6019 117.705C35.0841 116.959 33.417 116.685 31.8246 116.212C27.8187 114.993 24.0615 113.177 20.5532 110.888C18.0651 109.295 15.552 107.579 13.1136 105.787C10.2274 103.647 7.81387 101.06 5.87311 98.024C4.40509 95.7349 3.11125 93.3463 2.29016 90.7586C1.56859 88.4446 0.971433 86.0809 0.722617 83.6674C0.523564 81.7764 0.598209 79.9103 1.04608 78.069C1.59347 75.755 2.21551 73.4659 3.23566 71.3012C4.00699 69.6839 4.95249 68.191 6.04728 66.7728C8.83401 63.2147 12.2428 60.3284 15.8257 57.6164C17.866 56.0986 20.0556 54.8296 22.1208 53.3367C22.8672 52.8142 23.7381 52.5156 24.5592 52.1922C24.7085 52.1424 24.8329 52.1424 24.9822 52.1424C25.9774 52.1922 26.6243 51.3711 26.4004 50.4256C26.4004 50.4007 26.4004 50.3758 26.3755 50.3509C25.7535 49.2313 25.9277 47.9872 25.7535 46.7929C25.7037 46.4196 25.654 46.0215 25.5793 45.6483C25.5047 45.2751 25.3305 44.9765 24.9822 44.7775C24.7831 44.6531 24.7582 44.5286 24.7582 44.3296C24.7085 40.7218 24.6587 37.0891 24.6338 33.4812C24.6089 30.595 25.0319 27.7585 26.0023 25.0464C26.3507 24.0511 26.8483 23.1305 27.8187 22.5831C27.9928 22.4836 28.0177 22.3094 28.0675 22.1601C28.5402 20.6672 29.0876 19.1992 29.9834 17.8556C31.526 15.5416 33.5414 13.7252 35.9549 12.3816C37.9206 11.2869 39.936 10.2169 41.9763 9.24656C44.4396 8.07713 47.077 7.38044 49.7393 6.73352C50.7346 6.48471 51.6801 6.03684 52.6505 5.6885C55.0142 4.89228 57.4277 4.36977 59.8661 3.89702C64.2951 3.00128 68.7738 2.45389 73.2524 1.83185C74.7951 1.6328 76.3626 1.53327 77.9302 1.50839C79.6719 1.48351 81.3638 1.3591 83.1055 1.01076C85.121 0.612653 87.211 0.463363 89.2762 0.737061C89.4752 0.761942 89.6245 0.811705 89.7987 0.936113C90.2466 1.28446 90.7442 1.43375 91.3165 1.48351C94.4764 1.70744 97.6115 1.9065 100.771 2.22996C103.907 2.55342 107.017 3.12569 110.127 3.72285C111.048 3.89702 111.869 4.36977 112.665 4.84252C113.362 5.26551 114.133 5.38992 114.904 5.51432C119.283 6.31053 123.563 7.47997 127.395 9.8686C128.913 10.8141 130.306 11.9338 131.575 13.1779C132.222 13.8248 132.894 14.397 133.565 15.0191C135.581 16.8852 136.974 19.1245 137.745 21.762C138.741 25.2454 139.039 28.8035 138.84 32.4113C138.741 34.0037 138.417 35.5962 138.542 37.2135C138.542 37.3627 138.567 37.4872 138.567 37.6364C138.567 37.7609 138.542 37.8853 138.542 38.0097C138.542 38.5571 138.542 39.1045 138.243 39.627C137.895 40.2739 138.044 40.9706 138.467 41.5677C138.965 42.2644 139.711 42.563 140.557 42.5879C140.657 42.5879 140.756 42.6128 140.831 42.6128C140.93 42.6625 141.055 42.6625 141.154 42.6376C141.602 42.6874 142.025 42.7372 142.473 42.7869C142.573 42.8367 142.622 42.8616 142.672 42.8118ZM80.4681 53.3367C81.3887 53.3118 82.7821 53.4114 84.1755 53.2621C84.6233 53.2123 85.0961 53.2123 85.5439 53.1626C86.166 53.0879 86.7383 53.3367 87.3354 53.3367C88.903 53.3616 90.4207 53.1377 91.9634 52.9386C93.5309 52.7396 95.0487 52.2917 96.6411 52.2171C97.3378 52.1922 98.0096 52.0926 98.6814 51.9682C100.398 51.6199 102.115 51.172 103.857 50.8983C106.693 50.4505 109.48 49.7289 112.167 48.7087C114.929 47.6388 117.517 46.2206 120.279 45.1756C120.801 44.9765 121.299 44.6531 121.796 44.3794C122.07 44.2301 122.369 44.0559 122.543 43.8071C122.841 43.409 123.264 43.185 123.687 42.986C125.354 42.1649 126.922 41.1945 128.415 40.0748C129.286 39.4279 130.132 38.7561 130.804 37.9101C131.102 37.512 131.426 37.2135 131.849 36.9895C132.894 36.4172 133.242 35.3971 133.341 34.2774C133.541 31.9386 133.068 29.6743 132.446 27.435C132.346 27.0618 132.172 26.6637 131.873 26.4397C131.401 26.0416 131.202 25.4942 130.853 25.0215C130.007 23.8023 129.112 22.6329 128.241 21.4385C128.017 21.14 127.743 20.8414 127.469 20.5677C125.852 18.9255 124.061 17.6068 121.697 17.2833C121.572 17.2584 121.498 17.2087 121.398 17.1091C120.751 16.4622 120.005 15.9646 119.184 15.5665C115.402 13.7501 111.421 12.5558 107.315 11.6601C103.185 10.7643 98.9551 10.4906 94.7999 9.84372C90.7193 9.22168 86.6139 9.29632 82.5084 9.17192C81.7619 9.14703 81.0155 9.22168 80.2691 9.24656C80.1198 9.24656 79.9705 9.24656 79.8212 9.14704C79.3235 8.74893 78.7264 8.62452 78.0795 8.62452C77.1588 8.6494 76.2382 8.74893 75.3425 8.79869C73.7749 8.9231 72.2323 9.04751 70.6648 9.27144C68.8982 9.52026 67.1067 9.79396 65.3401 10.0428C64.519 10.1423 63.7726 10.3911 63.2252 11.0629C63.1754 11.1376 63.1007 11.1873 63.0261 11.2122C62.4787 11.3615 61.9811 11.5854 61.4088 11.6601C59.9657 11.8591 58.5225 12.1577 57.1043 12.4563C54.3424 13.0534 51.6801 13.9989 48.9431 14.7454C46.1564 15.4918 43.4941 16.5369 41.2298 18.403C41.1303 18.5025 40.981 18.5523 40.8566 18.6269C37.8708 19.9456 35.6315 22.2347 33.3673 24.4492C31.8495 25.9421 30.9786 27.8829 30.4561 29.948C30.058 31.5156 30.0082 33.1329 29.7594 34.7004C29.6848 35.1234 29.7097 35.5464 29.8092 35.9943C30.1824 37.7111 31.2274 38.98 32.5959 40.0251C33.5912 40.7715 34.5865 41.518 35.532 42.3391C37.6967 44.1554 40.2595 45.2502 42.8969 46.1459C44.0912 46.5441 45.3353 46.7431 46.5047 47.2656C48.7938 48.3106 51.2571 48.9078 53.5462 50.0026C56.0095 51.172 58.7216 51.6945 61.4088 52.1673C63.0012 52.441 64.5937 52.6152 66.211 52.5156C66.7583 52.4659 67.3057 52.3415 67.878 52.441C71.9586 53.0879 75.9645 53.3616 80.4681 53.3367Z" fill="white"/>
<path d="M141.204 42.6626C141.105 42.6875 140.98 42.6875 140.881 42.6377C141.005 42.5382 141.105 42.5382 141.204 42.6626Z" fill="#643710"/>
<path d="M142.672 42.8118C142.622 42.8367 142.572 42.8367 142.523 42.8118C142.572 42.7372 142.622 42.7372 142.672 42.8118Z" fill="#643710"/>
<path d="M80.4682 53.3368C75.9646 53.3865 71.9587 53.1128 67.9777 52.4908C67.4054 52.3913 66.858 52.5405 66.3106 52.5654C64.6933 52.665 63.1009 52.5157 61.5084 52.2171C58.8212 51.7443 56.134 51.2218 53.6459 50.0524C51.3568 48.9576 48.8935 48.3604 46.6044 47.3154C45.4349 46.7929 44.1909 46.5938 42.9966 46.1957C40.3342 45.3 37.7963 44.1803 35.6316 42.3889C34.6612 41.5927 33.666 40.8462 32.6956 40.0749C31.352 39.0298 30.2821 37.7858 29.9088 36.0441C29.8093 35.6211 29.7844 35.1732 29.8591 34.7502C30.1079 33.1578 30.1577 31.5405 30.5558 29.9978C31.0783 27.9327 31.9491 25.9919 33.4669 24.499C35.7311 22.2845 37.9954 19.9954 40.9563 18.6767C41.0807 18.6269 41.23 18.5523 41.3295 18.4528C43.5937 16.5867 46.256 15.5416 49.0428 14.7952C51.7798 14.0487 54.4421 13.1032 57.2039 12.5061C58.6471 12.2075 60.0653 11.9089 61.5084 11.7099C62.0558 11.6352 62.5784 11.3864 63.1258 11.262C63.2004 11.2371 63.275 11.1874 63.3248 11.1127C63.8473 10.416 64.5938 10.1921 65.4397 10.0926C67.2063 9.84375 68.9978 9.57005 70.7644 9.32124C72.3071 9.0973 73.8746 8.9729 75.4421 8.84849C76.3628 8.77384 77.2585 8.67432 78.1791 8.67432C78.826 8.67432 79.3983 8.77384 79.9208 9.19683C80.0701 9.29636 80.2194 9.32124 80.3687 9.29636C81.1151 9.27147 81.8616 9.19683 82.608 9.22171C86.7135 9.34612 90.819 9.27147 94.8995 9.89351C99.0796 10.5156 103.285 10.8141 107.415 11.7099C111.496 12.6056 115.501 13.775 119.283 15.6163C120.105 16.0144 120.851 16.512 121.498 17.1589C121.573 17.2336 121.672 17.3082 121.797 17.3331C124.16 17.6566 125.952 18.9753 127.569 20.6175C127.843 20.8912 128.092 21.1898 128.34 21.4883C129.211 22.6826 130.107 23.8521 130.953 25.0713C131.276 25.544 131.475 26.0914 131.973 26.4895C132.272 26.7383 132.446 27.1116 132.545 27.4848C133.167 29.7241 133.615 31.9884 133.441 34.3272C133.342 35.4469 132.993 36.467 131.948 37.0393C131.5 37.2881 131.202 37.5867 130.903 37.9599C130.231 38.8059 129.361 39.4777 128.515 40.1246C127.022 41.2443 125.454 42.1898 123.787 43.0358C123.364 43.2348 122.941 43.4588 122.643 43.8569C122.443 44.1057 122.17 44.2799 121.896 44.4291C121.398 44.7029 120.901 45.0263 120.378 45.2254C117.616 46.2704 115.004 47.6886 112.267 48.7585C109.58 49.8036 106.818 50.5251 103.956 50.9481C102.215 51.2218 100.498 51.6697 98.7811 52.018C98.1093 52.1424 97.4126 52.242 96.7408 52.2668C95.1483 52.3166 93.6306 52.7894 92.063 52.9884C90.5204 53.1626 89.0026 53.4114 87.4351 53.3865C86.8379 53.3865 86.2656 53.1377 85.6436 53.2123C85.1957 53.2621 84.723 53.2621 84.2751 53.3119C82.7822 53.3865 81.3888 53.3119 80.4682 53.3368Z" fill="#643710"/>
<path d="M138.069 24.8471C137.745 27.1362 137.347 29.4004 136.501 31.5651C135.133 35.0237 132.744 37.5367 129.41 39.1291C128.888 39.3779 128.365 39.6019 127.818 39.8507C127.793 39.8009 127.768 39.776 127.743 39.7263C127.942 39.5023 128.141 39.2784 128.365 39.0794C129.634 37.9846 130.903 36.9147 132.147 35.795C132.471 35.4964 132.67 35.0734 132.894 34.6753C132.993 34.4763 133.167 34.2275 132.844 34.0035C132.719 33.904 132.794 33.5805 132.794 33.3317C132.819 32.2867 132.894 31.2417 132.52 30.2215C132.346 29.7239 132.222 29.2263 132.023 28.7535C131.376 27.2108 130.779 25.6682 129.758 24.3246C128.912 23.2298 128.066 22.1101 127.245 20.9904C127.146 20.866 127.096 20.7416 126.997 20.6172C127.021 20.5923 127.046 20.5426 127.071 20.5177C127.221 20.5675 127.37 20.5923 127.494 20.667C128.44 21.1397 129.112 21.9111 129.758 22.7073C131.649 25.0461 132.869 27.6836 133.54 30.5947C133.565 30.6943 133.565 30.7938 133.59 30.8933C133.715 31.4158 133.615 31.9383 133.914 32.4609C134.088 32.7594 133.988 33.2322 134.038 33.7298C134.287 33.3317 134.511 33.0083 134.685 32.6599C135.78 30.7191 136.327 28.5793 136.626 26.4146C136.85 24.8969 136.899 23.3293 137.074 21.7867C137.148 20.9904 136.949 20.2938 136.601 19.5971C136.476 19.3483 136.377 19.0746 136.277 18.8009C136.253 18.7262 136.253 18.5769 136.302 18.5521C136.377 18.5023 136.476 18.5521 136.576 18.5769C136.626 18.5769 136.676 18.6267 136.725 18.6765C137.223 19.3483 137.795 19.9454 137.969 20.7914C137.994 20.9407 138.119 21.09 138.193 21.2393C138.293 21.4383 138.442 21.6125 138.492 21.8115C138.716 22.8068 138.99 23.827 139.089 24.8471C139.313 27.7831 139.213 30.6943 138.84 33.6054C138.79 34.0035 138.666 34.3767 138.567 34.75C138.492 34.75 138.442 34.75 138.367 34.75C138.293 34.4016 138.144 34.0533 138.144 33.7298C138.119 32.2618 138.168 30.7938 138.168 29.3507C138.168 27.9324 138.144 26.539 138.119 25.1208C138.119 25.0213 138.094 24.9466 138.069 24.8471Z" fill="black"/>
<path d="M41.5034 119.571C40.8565 119.497 40.1847 119.472 39.5378 119.347C37.4726 118.974 35.4821 118.327 33.5413 117.506C30.3814 116.163 27.1716 114.869 24.1858 113.152C21.6479 111.709 19.11 110.291 16.6716 108.673C14.6562 107.33 12.591 106.011 10.9737 104.17C10.3517 103.473 9.82917 102.702 9.28177 101.93C9.20713 101.831 9.23201 101.657 9.23201 101.507C9.35642 101.557 9.53059 101.557 9.63011 101.632C10.501 102.428 11.3221 103.299 12.2427 103.995C14.0839 105.389 15.95 106.757 17.9157 107.977C20.8019 109.768 23.738 111.535 26.7735 113.052C30.2072 114.769 33.7652 116.237 37.2984 117.755C38.5674 118.302 39.8861 118.725 41.1551 119.223C41.2795 119.273 41.4039 119.347 41.5283 119.422C41.5283 119.472 41.5034 119.522 41.5034 119.571Z" fill="black"/>
<path d="M28.8638 33.2073C28.8887 30.2215 29.9337 27.6835 31.974 25.5686C32.0238 25.5935 32.0984 25.6184 32.1482 25.6433C31.9989 26.0414 31.8745 26.4643 31.7252 26.8624C31.2773 27.9821 30.8046 29.0769 30.3567 30.2215C29.8591 31.5153 29.9088 32.8589 29.9835 34.2274C30.0083 34.6753 30.2572 35.1729 29.7346 35.5212C29.6849 35.5461 29.7346 35.7203 29.7346 35.7949C29.7595 36.0189 29.7844 36.2428 29.8093 36.4667C29.7595 36.4916 29.7098 36.5165 29.6849 36.5414C29.4112 36.2428 29.0877 35.994 28.8638 35.6705C27.4455 33.5556 26.4254 31.2665 25.8282 28.7783C25.8034 28.7037 25.7785 28.6042 25.7785 28.5295C25.7785 28.5046 25.7536 28.4797 25.7038 28.3802C25.6541 28.7037 25.6043 28.9774 25.5545 29.2262C25.5048 29.4999 25.4799 29.7736 25.4301 30.0224C25.3555 30.321 25.256 30.6196 25.1564 30.9181C25.1316 31.0177 24.9823 31.1421 24.9325 31.1172C24.833 31.0923 24.7086 30.9928 24.6588 30.8684C24.5842 30.7191 24.5593 30.5449 24.5344 30.3708C24.3851 29.475 24.5344 28.629 24.833 27.7831C25.0071 27.3352 25.1813 27.2357 25.5545 27.1859C25.7785 26.0414 25.9775 24.9217 26.2512 23.8269C26.7737 21.6871 27.7939 19.7463 29.1375 18.0046C30.8046 15.8648 32.8946 14.1977 35.0344 12.5555C35.1837 12.4311 35.4574 12.456 35.6565 12.4062C35.5569 12.5804 35.4823 12.8044 35.3579 12.9536C33.6908 14.6207 31.9242 16.1634 30.4313 18.0295C29.038 19.7712 27.9432 21.6871 27.2714 23.8269C26.7986 25.27 26.7489 26.8127 27.0723 28.3305C27.3958 30.0473 28.1173 31.6148 28.8638 33.2073Z" fill="black"/>
<path d="M163.871 62.7917C163.622 63.2645 163.423 63.7124 163.199 64.1353C163.15 64.1353 163.1 64.1105 163.05 64.1105C163.05 63.8865 163.05 63.6875 163.05 63.4635C163.1 62.2443 163.224 61.0252 163.175 59.8308C163.125 58.6614 162.976 57.4671 162.677 56.3474C162.453 55.4517 162.005 54.6057 161.557 53.7846C160.313 51.6199 159.019 49.4801 157.153 47.7633C156.78 47.4149 156.332 47.1412 155.909 46.8426C155.81 46.768 155.66 46.7182 155.586 46.6436C155.461 46.4943 155.387 46.2953 155.287 46.146C155.486 46.146 155.685 46.0713 155.859 46.146C157.253 46.5938 158.273 47.5642 159.169 48.6839C160.637 50.55 161.98 52.5157 163.025 54.6803C163.622 55.9244 163.846 57.2432 163.996 58.5868C164.07 59.383 164.095 60.2041 164.095 61.0003C164.095 61.3486 164.195 61.5974 164.419 61.8462C166.26 63.8368 167.479 66.1756 168.35 68.7136C168.723 69.8083 168.848 70.9778 169.072 72.1223C169.445 74.0133 169.818 75.9043 169.694 77.8451C169.644 78.6662 169.594 79.4873 169.544 80.2835C169.544 80.3581 169.544 80.4825 169.495 80.5323C169.345 80.7314 169.196 80.9055 169.047 81.0797C168.997 80.8807 168.897 80.6816 168.897 80.4577C168.823 77.8451 168.698 75.2325 168.126 72.6697C167.952 71.8486 167.827 71.0027 167.678 70.1816C167.355 68.4896 166.558 66.9967 165.762 65.5038C165.439 64.8818 165.016 64.2846 164.618 63.6875C164.394 63.3391 164.12 63.0903 163.871 62.7917Z" fill="black"/>
<path d="M27.2961 57.4672C26.475 55.6259 26.0521 53.6354 25.5295 51.62C23.2156 53.0631 20.9264 54.4316 18.712 55.9245C16.4975 57.3925 14.3577 59.0098 12.193 60.5525C12.1432 60.5027 12.0935 60.453 12.0686 60.4281C12.1432 60.3286 12.193 60.2041 12.2677 60.1046C13.5366 58.4873 15.0793 57.1935 16.7712 56.0738C18.8613 54.6804 20.9762 53.3866 23.116 52.0928C23.8127 51.6698 24.6089 51.3712 25.3802 50.998C25.2558 50.1271 25.0817 49.2065 24.9821 48.261C24.7582 46.2705 24.584 44.3048 24.385 42.3143C24.1362 39.8759 24.1362 37.4375 24.2357 34.9991C24.2606 34.402 24.3103 33.8048 24.4099 33.2076C24.4347 33.0335 24.6338 32.9091 24.7582 32.7598C24.8577 32.9339 25.007 33.1081 25.007 33.2823C25.0568 35.0738 25.0319 36.8652 25.1314 38.6567C25.231 40.6223 25.3554 42.6129 25.5793 44.5785C25.8281 46.9174 26.1516 49.2811 26.4999 51.62C26.7239 53.1129 27.0473 54.5809 27.2961 56.0738C27.3708 56.5217 27.3708 56.9944 27.4205 57.4672C27.3957 57.4672 27.3459 57.4672 27.2961 57.4672Z" fill="black"/>
<path d="M108.311 11.8096C107.539 11.9838 106.768 11.9091 106.022 11.7598C103.409 11.2871 100.821 10.7148 98.184 10.3416C95.8202 9.99324 93.4565 9.81907 91.0678 9.69466C87.2609 9.47072 83.4292 9.34632 79.6223 9.19703C78.1045 9.14726 76.5867 9.12238 75.069 9.0975C74.9197 9.0975 74.7704 8.99797 74.6211 8.94821C74.7455 8.84868 74.8699 8.67451 75.0192 8.64963C76.3628 8.52522 77.7064 8.32617 79.05 8.32617C81.6377 8.35105 84.2254 8.50034 86.7882 8.57499C88.082 8.62475 89.3759 8.67451 90.6697 8.6994C94.6508 8.77404 98.5821 9.24679 102.464 10.043C103.733 10.3167 105.026 10.5406 106.32 10.7894C107.042 10.9387 107.738 11.2622 108.311 11.8096Z" fill="black"/>
<path d="M65.5143 52.5407C65.2904 52.5656 65.0416 52.6154 64.8177 52.5905C62.3046 52.5159 59.8165 52.1426 57.3781 51.4957C54.8153 50.799 52.2525 50.1272 49.7394 49.2813C46.6541 48.2362 43.6186 47.0668 40.583 45.8725C39.4882 45.4495 38.4432 44.8523 37.3982 44.2801C37.0996 44.1308 36.8756 43.8322 36.6517 43.5834C36.6019 43.5336 36.6268 43.3843 36.6268 43.2599C36.7264 43.2599 36.8508 43.2101 36.9503 43.2599C39.0403 44.2552 41.1304 45.2753 43.3449 46.0218C44.5392 46.4199 45.7335 46.818 46.9278 47.2161C49.192 47.9625 51.4562 48.709 53.7205 49.4305C56.4823 50.3014 59.3188 50.8986 62.1802 51.4211C63.1257 51.5952 64.0463 51.8689 64.9918 52.0929C65.1909 52.1426 65.3651 52.2422 65.5641 52.3417C65.5392 52.4412 65.5143 52.491 65.5143 52.5407Z" fill="black"/>
<path d="M28.565 58.6113C28.8139 59.0841 29.0627 59.5568 29.3115 60.0296C31.4762 64.1848 33.3672 68.4893 35.7061 72.5699C37.1741 75.1327 39.0153 77.4467 40.8317 79.7607C41.7025 80.8803 42.5236 82.0498 43.3696 83.1694C43.5189 83.3685 43.6682 83.5427 43.8175 83.7417C43.7926 83.7666 43.7677 83.7915 43.7428 83.8164C43.6682 83.7666 43.5686 83.7417 43.5189 83.692C41.3044 81.9254 39.4881 79.8104 37.7712 77.596C35.1089 74.1126 33.1433 70.2559 31.3269 66.2749C30.8044 65.1303 30.2072 64.0355 29.7594 62.8661C29.2617 61.6718 28.8636 60.4028 28.4406 59.1836C28.3909 59.0094 28.4158 58.8104 28.3909 58.6362C28.4655 58.6611 28.5153 58.6362 28.565 58.6113Z" fill="black"/>
<path d="M105.374 95.1127C105.001 95.3366 104.678 95.6103 104.28 95.7845C100.995 97.1032 97.7855 98.5463 94.4265 99.6411C91.6896 100.537 88.8282 101.01 85.917 100.96C83.2049 100.91 80.5177 100.935 77.8056 100.86C77.0343 100.835 76.263 100.587 75.4916 100.437C75.2428 100.388 75.0189 100.338 74.795 100.263C74.6954 100.238 74.6208 100.139 74.5461 100.089C74.6457 100.039 74.7203 99.9397 74.8198 99.9397C75.0935 99.9148 75.3672 99.9148 75.6409 99.9148C78.1789 99.9646 80.6919 100.039 83.2298 100.064C84.8471 100.064 86.4644 100.089 88.0568 99.9148C90.8187 99.6162 93.5308 99.0937 96.1434 98.0985C98.731 97.1032 101.344 96.2075 103.956 95.2868C104.404 95.1376 104.877 95.0629 105.35 94.9634C105.325 94.9883 105.35 95.038 105.374 95.1127Z" fill="black"/>
<path d="M66.7584 10.5651C66.3852 10.6895 66.012 10.8886 65.6139 10.9632C63.7478 11.3115 61.8817 11.6599 60.0155 11.9336C56.9053 12.4312 53.9196 13.3518 50.9586 14.3969C47.6494 15.5414 44.3401 16.6362 41.2548 18.2784C40.6826 18.577 40.1103 18.9502 39.538 19.2488C39.4385 19.2985 39.2643 19.2736 39.1399 19.2985C39.1897 19.1741 39.1897 19 39.2643 18.9253C39.9361 18.3779 40.583 17.8056 41.3046 17.3578C43.2205 16.1635 45.3354 15.3424 47.4752 14.5959C50.7098 13.4762 53.8947 12.1824 57.2537 11.5106C59.916 10.9881 62.6032 10.6397 65.2904 10.2416C65.7632 10.167 66.2608 10.2665 66.7584 10.2914C66.7336 10.3909 66.7336 10.4656 66.7584 10.5651Z" fill="black"/>
<path d="M162.229 96.8793C162.08 97.1033 161.98 97.377 161.781 97.576C160.437 98.8201 159.143 100.139 157.7 101.283C153.197 104.866 148.444 108.126 143.393 110.937C142.224 111.584 141.005 112.107 139.786 112.654C139.562 112.754 139.213 112.953 139.064 112.629C138.915 112.306 139.288 112.182 139.512 112.057C141.925 110.639 144.389 109.295 146.752 107.827C149.713 105.986 152.575 103.995 155.337 101.856C157.377 100.288 159.417 98.7455 161.457 97.1779C161.657 97.0286 161.856 96.9291 162.055 96.8047C162.129 96.8047 162.179 96.8544 162.229 96.8793Z" fill="black"/>
<path d="M109.206 3.94666C108.783 3.94666 108.36 4.0213 107.962 3.92178C103.409 2.77722 98.7312 2.35424 94.0783 2.00589C90.3959 1.7322 86.7134 1.53314 83.0309 1.33409C82.384 1.30921 81.7371 1.38385 81.0901 1.38385C80.916 1.38385 80.7418 1.25945 80.5676 1.1848C80.7169 1.08528 80.8662 0.935986 81.0404 0.911104C83.6281 0.488117 86.2406 0.53788 88.8532 0.736933C91.1921 0.911104 93.5558 1.08528 95.8947 1.28433C99.7762 1.65755 103.658 1.98101 107.44 2.95139C107.937 3.0758 108.41 3.29974 108.883 3.49879C109.032 3.57343 109.132 3.69784 109.256 3.82225C109.231 3.84713 109.206 3.89689 109.206 3.94666Z" fill="black"/>
<path d="M105.823 51.0974C105.126 51.2965 104.454 51.5951 103.757 51.6946C101.966 51.9932 100.174 52.2171 98.3829 52.4659C96.3178 52.7396 94.2526 53.088 92.1874 53.287C90.4955 53.4612 88.8035 53.4612 87.1116 53.5358C86.191 53.5856 85.2455 53.6851 84.3248 53.71C82.9315 53.7349 81.5381 53.6851 80.1447 53.6603C79.7466 53.6603 79.3734 53.6851 78.9753 53.6603C78.8509 53.6603 78.7514 53.511 78.627 53.4363C78.7265 53.3368 78.826 53.1875 78.9504 53.1626C79.5227 53.088 80.095 53.0631 80.6672 53.0382C83.4789 52.8889 86.2905 52.7894 89.1021 52.5903C91.5156 52.4162 93.9291 52.1922 96.3426 51.8937C98.7313 51.62 101.095 51.2219 103.459 50.8984C104.106 50.8238 104.753 50.8735 105.4 50.8486C105.524 50.8486 105.673 50.8984 105.798 50.9233C105.798 50.973 105.798 51.0477 105.823 51.0974Z" fill="black"/>
<path d="M71.7346 1.83155C71.436 1.95596 71.1374 2.13013 70.8388 2.15501C68.1516 2.27942 65.5142 2.8517 62.9016 3.37421C60.1398 3.92161 57.353 4.31971 54.616 5.0164C50.8838 5.96189 47.2262 7.10645 43.5189 8.17636C43.2452 8.251 42.9963 8.40029 42.7227 8.47494C42.6231 8.49982 42.5236 8.45005 42.4241 8.42517C42.449 8.32565 42.449 8.15147 42.5236 8.10171C42.9217 7.87778 43.3198 7.60408 43.7428 7.47967C46.3305 6.65858 48.943 5.88725 51.5556 5.06616C55.462 3.84696 59.5177 3.22492 63.5237 2.45359C65.8376 2.00572 68.1267 1.50809 70.4905 1.43345C70.8886 1.40857 71.2867 1.53297 71.6848 1.55786C71.7346 1.68226 71.7346 1.75691 71.7346 1.83155Z" fill="black"/>
<path d="M64.0213 124.647C63.2998 124.647 62.5782 124.722 61.8566 124.647C55.8353 123.976 49.9632 122.632 44.2156 120.691C43.7428 120.542 43.2701 120.343 42.8222 120.094C42.6729 120.019 42.5734 119.795 42.4739 119.646C42.6729 119.596 42.8969 119.472 43.071 119.522C46.1812 120.293 49.2665 121.139 52.3767 121.886C55.8602 122.707 59.3685 123.428 62.8768 124.224C63.2749 124.299 63.6481 124.423 64.0462 124.523C64.0213 124.548 64.0213 124.598 64.0213 124.647Z" fill="black"/>
<path d="M0.67268 80.234C0.67268 79.7613 0.647798 79.2636 0.67268 78.7909C0.821969 75.83 1.44401 72.9686 2.96179 70.4058C3.80776 68.9876 4.85279 67.7186 5.84805 66.3999C7.01748 64.8572 8.33621 63.439 9.8291 62.1949C9.97839 62.0705 10.1277 61.9212 10.3019 61.8217C10.4511 61.747 10.6253 61.7221 10.7995 61.6724C10.7497 61.8217 10.7497 61.9958 10.6502 62.1202C10.3516 62.5432 10.0033 62.9662 9.67981 63.3892C8.2118 65.2055 6.7189 67.0219 5.25089 68.8383C3.73311 70.7541 2.8125 72.9935 2.11581 75.3324C1.74259 76.6262 1.46889 77.9449 1.14543 79.2636C1.07078 79.5871 0.971259 79.9106 0.871732 80.2589C0.821969 80.234 0.747324 80.234 0.67268 80.234Z" fill="black"/>
<path d="M131.5 116.66C130.754 117.008 130.032 117.382 129.286 117.68C124.309 119.596 119.184 120.94 113.909 121.636C112.043 121.885 110.201 122.233 108.335 122.532C107.912 122.607 107.489 122.656 107.042 122.632C106.867 122.632 106.668 122.457 106.494 122.358C106.668 122.258 106.818 122.084 106.992 122.034C109.48 121.611 111.968 121.164 114.456 120.765C118.288 120.168 122.045 119.297 125.728 118.028C127.37 117.481 129.062 117.033 130.729 116.56C130.953 116.486 131.202 116.461 131.425 116.436C131.475 116.536 131.475 116.585 131.5 116.66Z" fill="black"/>
<path d="M116.198 87.9468C116.273 87.8224 116.322 87.6731 116.422 87.5736C116.696 87.2999 116.969 87.0262 117.293 86.8023C118.562 85.8568 119.607 84.6873 120.602 83.493C122.045 81.8011 123.513 80.134 124.981 78.442C125.802 77.4965 126.723 76.6257 127.942 76.2276C128.465 76.0534 129.012 75.9788 129.535 75.9539C129.783 75.929 130.057 76.0534 130.306 76.1778C130.555 76.3022 130.555 76.5013 130.306 76.6506C130.057 76.775 129.783 76.9243 129.51 76.9491C127.768 77.1731 126.474 78.1683 125.454 79.4871C123.662 81.8011 121.572 83.8413 119.532 85.9314C118.736 86.7525 117.641 87.2999 116.671 87.9717C116.571 88.0463 116.397 88.0463 116.248 88.0712C116.248 87.9966 116.223 87.9717 116.198 87.9468Z" fill="black"/>
<path d="M146.379 53.3618C146.155 53.3867 145.907 53.4862 145.708 53.4364C144.812 53.2622 143.916 53.113 143.07 52.8144C141.503 52.2919 139.885 52.0928 138.293 51.7694C137.945 51.6947 137.92 51.8938 137.87 52.1426C137.646 53.3867 137.522 54.6556 137.198 55.8748C136.676 57.9151 136.103 59.9803 135.133 61.8713C135.058 62.0206 134.959 62.1699 134.859 62.3191C134.834 62.3689 134.809 62.4187 134.785 62.4684C134.735 62.4436 134.685 62.4187 134.635 62.4187C134.735 61.921 134.809 61.3985 134.934 60.9009C135.606 58.0644 136.277 55.203 136.974 52.3665C136.999 52.267 137.024 52.1426 137.024 52.0182C137.173 51.0976 137.322 50.9731 138.268 50.9731C139.636 50.998 141.005 51.1224 142.299 51.5454C143.418 51.8938 144.538 52.267 145.633 52.69C145.931 52.7895 146.155 53.0134 146.429 53.1876C146.404 53.2622 146.379 53.312 146.379 53.3618Z" fill="black"/>
<path d="M91.1921 120.567C90.7442 120.666 90.3212 120.791 89.8733 120.865C87.3105 121.214 84.7477 121.438 82.16 121.413C78.8259 121.388 75.4918 121.413 72.1576 121.363C70.8638 121.338 69.57 121.239 68.3756 120.691C68.301 120.666 68.2264 120.666 68.1766 120.616C68.1019 120.542 68.0273 120.467 67.9775 120.368C68.0771 120.318 68.2015 120.243 68.301 120.268C68.923 120.343 69.5202 120.467 70.1422 120.492C72.2572 120.567 74.397 120.641 76.5119 120.641C79.224 120.641 81.9361 120.567 84.6482 120.492C86.2655 120.442 87.8828 120.343 89.5001 120.293C90.0475 120.268 90.6198 120.343 91.1921 120.393C91.1921 120.442 91.1921 120.492 91.1921 120.567Z" fill="black"/>
<path d="M158.547 72.4209C158.347 72.6946 158.223 72.9185 158.049 73.0678C156.282 74.5358 154.59 76.1283 152.376 76.9742C150.983 77.4967 149.564 77.7953 148.096 78.0193C145.708 78.3925 143.344 78.0939 140.98 77.9446C140.831 77.9446 140.706 77.7953 140.557 77.7207C140.682 77.646 140.831 77.4967 140.955 77.4967C142.025 77.4221 143.07 77.3474 144.14 77.3474C146.653 77.3474 149.116 77.0738 151.505 76.2527C153.272 75.6306 154.765 74.6105 156.282 73.5406C156.879 73.1176 157.601 72.8439 158.248 72.5204C158.298 72.4209 158.372 72.4458 158.547 72.4209Z" fill="black"/>
<path d="M141.727 68.7136C141.95 68.5643 142.174 68.3652 142.423 68.2906C143.219 68.0666 144.041 67.8676 144.837 67.6685C146.255 67.3202 147.549 66.6733 148.594 65.678C149.191 65.1057 149.639 64.3593 150.087 63.6377C151.406 61.5477 151.405 59.3581 150.56 57.1187C150.535 57.069 150.51 57.0441 150.51 56.9943C150.51 56.8699 150.535 56.7704 150.535 56.646C150.634 56.6958 150.759 56.7206 150.808 56.7953C151.132 57.4173 151.555 58.0145 151.729 58.6614C152.251 60.5026 151.878 62.2195 150.983 63.9114C149.241 67.2207 146.429 68.7136 142.846 69.0121C142.473 69.037 142.1 68.9375 141.727 68.8877C141.751 68.838 141.727 68.7882 141.727 68.7136Z" fill="black"/>
<path d="M93.4812 119.596C93.8295 119.546 94.1779 119.447 94.5262 119.472C96.5167 119.671 98.4326 119.297 100.398 119.074C104.753 118.601 109.057 117.854 113.386 117.158C113.785 117.083 114.208 117.083 114.631 117.058C114.705 117.058 114.78 117.083 114.904 117.183C114.705 117.282 114.506 117.406 114.282 117.481C112.764 117.879 111.272 118.352 109.729 118.601C106.295 119.148 102.837 119.521 99.403 120.019C97.5369 120.293 95.7205 120.342 93.8793 119.919C93.7798 119.895 93.6803 119.87 93.5807 119.845C93.5558 119.845 93.531 119.795 93.4812 119.77C93.4812 119.696 93.4812 119.646 93.4812 119.596Z" fill="black"/>
<path d="M148.146 43.3594C147.549 43.3594 146.902 43.434 146.33 43.3345C144.14 42.9613 141.95 42.7871 139.736 42.6627C139.338 42.6378 138.94 42.5134 138.566 42.389C138.218 42.2646 138.069 41.9909 138.069 41.5928C138.094 40.1994 138.094 38.7812 138.119 37.3878C138.119 37.139 138.143 36.8902 138.218 36.6662C138.268 36.5418 138.467 36.3677 138.566 36.3925C138.716 36.4174 138.84 36.5916 138.965 36.6911C139.014 36.7409 138.989 36.8404 138.989 36.8902C138.989 38.3333 138.989 39.7764 139.014 41.2444C139.014 41.344 139.014 41.4435 139.014 41.5928C139.462 41.6177 139.885 41.6923 140.333 41.6923C142.398 41.7421 144.439 41.8416 146.429 42.4885C146.902 42.6378 147.35 42.812 147.798 42.9862C147.947 43.0359 148.046 43.1354 148.196 43.2101C148.171 43.2847 148.171 43.3096 148.146 43.3594Z" fill="black"/>
<path d="M97.4124 123.553C96.8899 123.677 96.3922 123.851 95.8697 123.951C91.5155 124.797 87.0865 124.996 82.6576 124.797C81.314 124.722 79.9953 124.672 78.6517 124.598C78.4526 124.598 78.2536 124.548 78.0545 124.498C77.9799 124.473 77.9052 124.374 77.8555 124.324C77.9301 124.249 78.0048 124.15 78.0794 124.125C78.4526 124.075 78.8258 124.05 79.1991 124.05C80.9905 124.05 82.7571 124.025 84.5486 124.05C87.9076 124.1 91.2418 123.752 94.5759 123.503C95.3721 123.453 96.1434 123.428 96.9396 123.403C97.0889 123.403 97.2382 123.428 97.3875 123.428C97.3875 123.453 97.4124 123.503 97.4124 123.553Z" fill="black"/>
<path d="M133.391 14.6208C133.142 14.4466 132.844 14.2973 132.645 14.0983C131.202 12.6054 129.46 11.5604 127.693 10.5651C124.807 8.92292 121.771 7.67884 118.636 6.60893C118.437 6.53429 118.014 6.55917 118.139 6.18594C118.164 6.08642 118.587 6.03665 118.811 6.08642C122.02 6.7831 124.956 8.12671 127.793 9.69425C129.261 10.4905 130.704 11.3364 131.973 12.3815C132.495 12.8044 132.893 13.3518 133.316 13.8495C133.441 13.9988 133.441 14.2725 133.516 14.4715C133.491 14.5462 133.441 14.5959 133.391 14.6208Z" fill="black"/>
<path d="M161.159 90.2607C161.283 89.9373 161.408 89.6138 161.557 89.2904C162.901 86.8022 164.194 84.2892 165.14 81.602C165.712 79.9847 166.16 78.3176 166.683 76.6754C166.732 76.5012 166.907 76.3768 167.031 76.2275C167.106 76.4017 167.255 76.6008 167.23 76.7749C167.081 77.82 166.956 78.8899 166.658 79.91C165.712 83.1944 164.468 86.3543 162.378 89.1162C162.055 89.5641 161.632 89.9373 161.283 90.3354C161.234 90.3354 161.209 90.2856 161.159 90.2607Z" fill="black"/>
<path d="M121.572 17.6068C121.249 17.5073 120.95 17.4575 120.702 17.3083C120.254 17.0843 119.806 16.8355 119.383 16.5618C116.92 14.9943 114.307 13.7502 111.446 12.9789C110.998 12.8545 110.55 12.6554 110.127 12.4563C110.003 12.3817 109.928 12.1826 109.828 12.0334C110.003 11.9587 110.177 11.8094 110.351 11.8343C111.048 11.9587 111.719 12.1329 112.416 12.2822C115.302 12.9789 117.915 14.2229 120.328 15.9398C121.075 16.5369 121.423 16.9848 121.572 17.6068Z" fill="black"/>
<path d="M18.687 103.921C18.264 103.722 17.8161 103.573 17.4429 103.299C15.9749 102.254 14.5069 101.209 13.1135 100.114C11.5708 98.8948 10.053 97.6756 8.6348 96.3568C7.91323 95.685 7.36584 94.8142 6.76868 94.018C6.69404 93.9185 6.61939 93.7692 6.59451 93.6448C6.56963 93.5701 6.61939 93.4457 6.66915 93.3959C6.69403 93.3711 6.81844 93.4208 6.89309 93.4457C6.91797 93.4706 6.94285 93.4955 6.96773 93.5452C8.58504 95.6353 10.6253 97.2775 12.6905 98.8699C14.4571 100.238 16.1988 101.607 17.9405 103C18.2391 103.249 18.5128 103.523 18.8114 103.796C18.7367 103.821 18.7118 103.871 18.687 103.921Z" fill="black"/>
<path d="M169.046 85.5834C169.022 85.882 169.071 86.2304 168.947 86.5041C168.549 87.5491 168.2 88.6687 167.628 89.6142C166.583 91.3808 165.389 93.0728 164.219 94.7896C163.971 95.1628 163.622 95.4614 163.249 95.76C163.125 95.8595 162.901 95.7849 162.702 95.7849C162.751 95.6356 162.801 95.4863 162.876 95.3619C162.95 95.2126 163.075 95.1131 163.15 94.9638C164.891 92.0775 166.832 89.2908 168.3 86.2055C168.424 85.9567 168.648 85.7327 168.798 85.5088C168.922 85.5337 168.972 85.5586 169.046 85.5834Z" fill="black"/>
<path d="M140.607 68.9374C140.358 69.0369 140.134 69.1862 139.885 69.211C139.064 69.2359 138.243 69.2857 137.447 69.211C136.278 69.0866 135.083 68.8876 133.914 68.6637C132.744 68.4397 132.297 67.6435 132.769 66.5238C133.018 65.9516 133.317 65.429 133.64 64.8816C133.715 64.7572 133.939 64.7324 134.088 64.6577C134.138 64.807 134.262 65.0061 134.237 65.1305C134.063 65.7276 133.864 66.2999 133.64 66.8722C133.416 67.4693 133.516 67.7182 134.138 67.7928C135.68 67.9918 137.223 68.1411 138.741 68.3402C139.164 68.3899 139.587 68.4397 140.01 68.5392C140.209 68.589 140.408 68.6885 140.582 68.7632C140.582 68.8129 140.582 68.8876 140.607 68.9374Z" fill="black"/>
<path d="M7.86355 101.01C7.68938 100.86 7.49032 100.711 7.34103 100.562C6.1716 99.3425 5.27586 97.9243 4.47965 96.4314C3.45951 94.5404 2.63841 92.5747 2.06614 90.5096C2.01638 90.3603 1.94173 90.211 1.96661 90.0617C1.96661 89.9373 2.06614 89.8129 2.14078 89.6885C2.24031 89.7631 2.3896 89.8378 2.43936 89.9373C2.58865 90.2359 2.68818 90.5593 2.7877 90.8579C3.95714 93.993 5.4998 96.929 7.34103 99.7158C7.58985 100.089 7.7889 100.512 8.01284 100.935C7.93819 100.96 7.91331 100.985 7.86355 101.01Z" fill="black"/>
<path d="M76.0889 124.772C75.218 124.846 74.3223 124.971 73.4514 124.971C70.9882 124.946 68.5498 124.896 66.0865 124.821C65.7879 124.821 65.3898 124.796 65.4147 124.398C65.4396 123.975 65.8377 124.05 66.1362 124.05C68.8981 124.125 71.6351 124.199 74.3969 124.299C74.9692 124.324 75.5415 124.448 76.1138 124.548C76.1138 124.622 76.1138 124.697 76.0889 124.772Z" fill="black"/>
<path d="M62.5783 96.6551C61.6328 96.3566 60.6624 96.1077 59.7169 95.7843C57.179 94.8885 54.9894 93.3956 53.0487 91.5544C52.9492 91.4549 52.9243 91.2807 52.8745 91.1314C52.9989 91.1314 53.1482 91.1065 53.2477 91.1812C55.9101 92.9975 58.7466 94.5153 61.6826 95.8092C61.9065 95.9087 62.1056 96.058 62.3046 96.1824C62.429 96.257 62.5534 96.3814 62.653 96.481C62.6281 96.5307 62.6032 96.5805 62.5783 96.6551Z" fill="black"/>
<path d="M147.2 103.249C147.549 102.975 147.872 102.702 148.245 102.428C150.012 101.184 151.779 99.9647 153.52 98.7206C154.292 98.1732 155.013 97.5512 155.785 97.0038C155.934 96.9043 156.158 96.9043 156.357 96.8545C156.307 97.0535 156.332 97.3272 156.232 97.4516C155.61 98.0737 154.963 98.7206 154.267 99.2431C152.276 100.761 150.161 102.08 147.897 103.15C147.698 103.249 147.499 103.299 147.3 103.373C147.25 103.349 147.225 103.299 147.2 103.249Z" fill="black"/>
<path d="M73.2025 99.5666C71.0876 99.8652 69.1966 99.2929 67.3056 98.8202C66.2854 98.5714 65.315 98.0986 64.3198 97.7254C64.1705 97.6756 64.0461 97.5761 63.9217 97.4517C63.847 97.3771 63.7973 97.2278 63.8221 97.1531C63.847 97.0785 63.9963 97.0038 64.071 96.9789C64.1954 96.9541 64.3198 97.0038 64.4442 97.0287C66.4098 97.5263 68.4004 97.9991 70.366 98.5216C71.0876 98.7207 71.7594 99.0192 72.4561 99.2929C72.68 99.3925 72.9039 99.4422 73.2025 99.5666Z" fill="black"/>
<path d="M76.3377 53.5359C75.5663 53.6106 74.795 53.7599 74.0486 53.7101C72.4064 53.6106 70.7642 53.4115 69.122 53.2622C68.6493 53.2125 68.1516 53.1378 67.6789 53.0383C67.5296 53.0134 67.4301 52.8144 67.3057 52.7148C67.4301 52.6153 67.5296 52.4411 67.6789 52.4163C68.2014 52.3665 68.7239 52.2918 69.2215 52.3416C71.1872 52.5407 73.128 52.7895 75.0687 53.0383C75.4917 53.0881 75.9147 53.2373 76.3626 53.3618C76.3626 53.3866 76.3377 53.4613 76.3377 53.5359Z" fill="black"/>
<path d="M157.725 71.6747C157.9 71.4259 158.049 71.1522 158.273 70.9532C158.92 70.3062 159.567 69.6593 160.238 69.0124C161.109 68.1664 161.781 67.196 162.129 66.0266C162.179 65.8773 162.204 65.7032 162.304 65.5787C162.378 65.4792 162.552 65.3299 162.627 65.3548C162.751 65.4046 162.901 65.5539 162.901 65.6783C162.901 66.0266 162.876 66.375 162.776 66.6984C162.527 67.619 162.08 68.4401 161.383 69.087C160.487 69.933 159.517 70.7043 158.571 71.4757C158.372 71.625 158.099 71.6996 157.875 71.824C157.8 71.7743 157.75 71.7245 157.725 71.6747Z" fill="black"/>
<path d="M139.388 78.0193C138.741 78.3677 138.144 78.3179 137.571 78.2184C135.855 77.8949 134.138 77.5217 132.446 77.1485C132.197 77.0987 131.948 76.9494 131.699 76.825C131.625 76.7753 131.5 76.6757 131.5 76.6011C131.5 76.5265 131.625 76.4269 131.724 76.3772C131.799 76.3274 131.898 76.3274 131.973 76.3523C134.088 76.7504 136.203 77.1236 138.293 77.5466C138.641 77.6212 138.965 77.8452 139.388 78.0193Z" fill="black"/>
<path d="M133.316 111.385C133.043 111.559 132.794 111.758 132.495 111.883C131.027 112.505 129.559 113.152 128.066 113.674C126.648 114.172 125.18 114.545 123.737 114.968C123.637 114.993 123.513 114.918 123.389 114.893C123.463 114.794 123.513 114.669 123.588 114.62C126.126 113.649 128.688 112.679 131.251 111.733C131.898 111.509 132.57 111.36 133.217 111.161C133.267 111.261 133.292 111.31 133.316 111.385Z" fill="black"/>
<path d="M119.209 45.25C119.881 44.827 120.503 44.3792 121.199 44.0059C122.443 43.2844 123.712 42.5877 124.981 41.891C125.081 41.8412 125.155 41.7666 125.255 41.7666C125.404 41.7666 125.628 41.7915 125.703 41.891C125.777 41.9905 125.728 42.2394 125.628 42.3389C125.429 42.5628 125.155 42.7619 124.907 42.9609C123.414 44.0308 121.846 44.9266 120.03 45.3247C119.781 45.3744 119.532 45.3993 119.283 45.4491C119.259 45.3496 119.234 45.2998 119.209 45.25Z" fill="black"/>
<path d="M114.879 89.2406C114.481 89.589 114.133 90.012 113.71 90.2857C112.043 91.3805 110.351 92.4255 108.659 93.4705C108.41 93.6198 108.087 93.6944 107.763 93.7442C107.664 93.7691 107.514 93.6447 107.465 93.57C107.44 93.4954 107.539 93.3212 107.614 93.2715C108.858 92.4504 110.077 91.6293 111.321 90.8828C112.292 90.3105 113.312 89.8129 114.307 89.2904C114.456 89.2158 114.63 89.1909 114.78 89.1411C114.83 89.166 114.854 89.1909 114.879 89.2406Z" fill="black"/>
<path d="M35.4075 42.2893C34.9347 42.1649 34.5615 42.1151 34.2381 41.9658C32.7452 41.294 31.526 40.2988 30.68 38.9054C30.5058 38.6317 30.3814 38.3331 30.3068 38.0345C30.2819 37.9101 30.3565 37.6613 30.4809 37.6115C30.5805 37.5618 30.8044 37.6364 30.9039 37.736C31.1279 37.935 31.2772 38.2087 31.4513 38.4575C32.1978 39.403 33.0935 40.1743 34.0639 40.871C34.5864 41.1945 35.084 41.5428 35.4075 42.2893Z" fill="black"/>
<path d="M49.391 88.8673C49.2168 88.8175 49.0177 88.8175 48.8436 88.7429C48.545 88.5936 48.2215 88.4194 47.9727 88.1955C47.1267 87.3993 46.3305 86.5533 45.5343 85.7322C45.385 85.5581 45.2606 85.359 45.1611 85.1599C45.1113 85.0853 45.1113 84.9111 45.1611 84.8614C45.2357 84.7867 45.4099 84.737 45.4846 84.7618C45.6587 84.8116 45.8329 84.9111 45.9573 85.0355C47.0023 86.0557 48.0474 87.1007 49.0675 88.1209C49.2417 88.295 49.3412 88.5438 49.4656 88.7678C49.4656 88.7678 49.4159 88.8175 49.391 88.8673Z" fill="black"/>
<path d="M113.063 48.5843C112.864 48.7584 112.665 49.0073 112.441 49.1068C111.147 49.7288 109.803 50.1518 108.36 50.1767C108.236 50.1767 108.111 50.2016 108.012 50.1518C107.863 50.0772 107.639 49.9528 107.639 49.8781C107.639 49.7288 107.788 49.5547 107.912 49.4551C108.087 49.3556 108.31 49.3307 108.534 49.2561C109.704 48.9575 110.873 48.6589 112.043 48.3852C112.341 48.3106 112.665 48.3852 112.988 48.3852C113.013 48.4599 113.038 48.5345 113.063 48.5843Z" fill="black"/>
<path d="M37.6718 20.2689C37.5723 20.4431 37.4976 20.6422 37.3483 20.7915C36.1789 22.0355 35.0095 23.2547 33.84 24.4739C33.7405 24.5735 33.5663 24.5486 33.417 24.5983C33.3673 24.449 33.2678 24.2749 33.3175 24.1505C33.417 23.9016 33.5415 23.6528 33.7156 23.4538C34.5616 22.3839 35.532 21.4384 36.6517 20.6173C36.9253 20.4182 37.2488 20.2938 37.5474 20.1445C37.5971 20.1943 37.6469 20.2441 37.6718 20.2689Z" fill="black"/>
<path d="M138.243 113.525C137.994 113.749 137.771 114.023 137.472 114.172C136.153 114.819 134.81 115.416 133.441 116.013C133.217 116.113 132.819 116.287 132.695 115.914C132.57 115.566 132.944 115.466 133.167 115.367C134.486 114.769 135.805 114.172 137.149 113.625C137.472 113.5 137.82 113.476 138.169 113.426C138.194 113.426 138.218 113.476 138.243 113.525Z" fill="black"/>
<path d="M5.79858 91.8785C5.10189 91.3311 4.65402 90.6344 4.2808 89.888C3.65876 88.619 3.16113 87.3252 2.88743 85.9318C2.86255 85.683 2.86255 85.4591 2.86255 85.2351C2.86255 85.1605 2.98696 85.061 3.0616 84.9863C3.11136 85.061 3.21089 85.1107 3.23577 85.2103C3.36018 85.6084 3.45971 86.0065 3.609 86.4046C4.2808 88.0965 4.97748 89.7636 5.64929 91.4555C5.72393 91.5799 5.74881 91.7292 5.79858 91.8785Z" fill="black"/>
<path d="M126.399 20.6422C126.101 20.5178 125.753 20.4183 125.504 20.2441C124.484 19.4728 123.488 18.7015 122.493 17.9052C122.393 17.8306 122.369 17.6315 122.319 17.4823C122.493 17.4574 122.692 17.333 122.816 17.3827C124.135 17.955 125.28 18.7761 126.225 19.8709C126.375 20.0451 126.424 20.3188 126.549 20.5178C126.474 20.5427 126.449 20.5925 126.399 20.6422Z" fill="black"/>
<path d="M116.347 5.51425C115.899 5.46449 115.452 5.48937 115.029 5.38985C113.884 5.14103 112.764 4.84245 111.645 4.54387C111.495 4.49411 111.396 4.29506 111.296 4.14577C111.446 4.04624 111.62 3.87207 111.769 3.87207C113.163 3.9716 114.531 4.27018 115.8 4.84245C116.024 4.94198 116.223 5.16591 116.422 5.34008C116.372 5.38985 116.372 5.46449 116.347 5.51425Z" fill="black"/>
<path d="M1.2202 86.6285C1.04603 86.1308 0.772336 85.6581 0.722573 85.1605C0.623047 84.2647 0.647928 83.369 0.623047 82.4733C0.623047 82.2742 0.722573 82.0503 0.8221 81.8761C0.871863 81.7766 1.04603 81.6522 1.14556 81.677C1.26997 81.7019 1.36949 81.8512 1.44414 81.9756C1.4939 82.0752 1.46902 82.1996 1.4939 82.324C1.4939 83.5432 1.51878 84.7624 1.51878 85.9816C1.51878 86.2055 1.46902 86.4294 1.44414 86.6534C1.36949 86.6036 1.29485 86.6285 1.2202 86.6285Z" fill="black"/>
<path d="M40.3341 9.74397C40.1101 9.96791 39.9111 10.2416 39.6374 10.3909C38.8909 10.8139 38.1196 11.1622 37.3483 11.5603C37.2736 11.6101 37.1741 11.6599 37.0995 11.635C36.9502 11.6101 36.8009 11.5603 36.6267 11.5354C36.6516 11.3862 36.6516 11.212 36.7511 11.1125C36.9004 10.9383 37.0746 10.7392 37.2985 10.6397C37.9454 10.2914 38.5924 9.94303 39.2393 9.66933C39.5379 9.54492 39.8862 9.59469 40.2097 9.54492C40.2843 9.59469 40.3092 9.66933 40.3341 9.74397Z" fill="black"/>
<path d="M73.0036 9.24626C72.4064 9.66925 71.7844 9.76878 71.1624 9.79366C70.4408 9.81854 69.6944 9.84342 68.9728 9.81854C68.8235 9.81854 68.6991 9.64437 68.5498 9.56972C68.6742 9.44532 68.7489 9.22138 68.8981 9.22138C70.192 8.99745 71.4858 8.74863 72.7797 9.17162C72.8294 9.17162 72.8792 9.1965 73.0036 9.24626Z" fill="black"/>
<path d="M24.2607 107.23C24.0119 107.181 23.7133 107.23 23.5143 107.106C22.718 106.658 21.9218 106.16 21.1505 105.638C21.0261 105.563 21.051 105.29 21.0012 105.115C21.1754 105.066 21.3993 104.941 21.4989 104.991C22.3946 105.538 23.2654 106.086 24.1363 106.658C24.2607 106.733 24.2856 106.907 24.3602 107.056C24.3105 107.131 24.2856 107.181 24.2607 107.23Z" fill="black"/>
<path d="M120.901 116.038C120.702 116.163 120.502 116.312 120.279 116.362C119.482 116.561 118.686 116.735 117.89 116.934C117.79 116.959 117.641 116.984 117.542 116.934C117.417 116.884 117.268 116.785 117.243 116.66C117.218 116.561 117.343 116.362 117.417 116.337C118.338 115.914 119.283 115.64 120.303 115.69C120.478 115.69 120.652 115.839 120.826 115.889C120.901 115.964 120.901 116.013 120.901 116.038Z" fill="black"/>
<path d="M157.725 95.3863C157.8 95.2121 157.825 95.0131 157.924 94.8389C158.546 93.9183 159.168 93.0226 159.815 92.1019C159.865 92.0273 160.039 91.9527 160.089 91.9775C160.189 92.0273 160.288 92.1517 160.288 92.2512C160.288 92.4005 160.263 92.5747 160.189 92.6991C159.591 93.5202 158.994 94.3413 158.347 95.1375C158.223 95.2868 157.999 95.3614 157.825 95.461C157.8 95.461 157.775 95.4361 157.725 95.3863Z" fill="black"/>
<path d="M78.5271 1.38395C78.328 1.45859 78.1041 1.583 77.9051 1.583C76.7605 1.583 75.6159 1.55812 74.4714 1.50835C74.347 1.50835 74.2475 1.38395 74.123 1.3093C74.2226 1.20977 74.347 1.06048 74.4465 1.06048C75.5911 1.01072 76.7605 0.98584 77.9051 0.98584C78.1041 0.98584 78.3032 1.13513 78.4773 1.20977C78.5271 1.25954 78.5271 1.3093 78.5271 1.38395Z" fill="black"/>
<path d="M115.004 47.7381C114.904 47.6634 114.73 47.5888 114.705 47.4893C114.68 47.3897 114.73 47.1658 114.829 47.116C115.675 46.6433 116.521 46.1954 117.367 45.7973C117.591 45.6978 117.89 45.6978 117.989 45.9964C118.089 46.3198 117.84 46.3945 117.616 46.5189C116.969 46.8175 116.347 47.1409 115.725 47.4395C115.501 47.539 115.277 47.6137 115.004 47.7381Z" fill="black"/>
<path d="M103.981 122.93C103.708 123.03 103.459 123.229 103.185 123.254C102.09 123.353 101.02 123.403 99.9256 123.453C99.826 123.453 99.7265 123.453 99.627 123.403C99.5274 123.353 99.4528 123.254 99.3533 123.179C99.4528 123.105 99.5523 123.005 99.6519 123.005C100.548 122.906 101.443 122.831 102.339 122.731C102.762 122.706 103.16 122.657 103.583 122.657C103.708 122.657 103.807 122.731 103.931 122.756C103.981 122.806 103.981 122.856 103.981 122.93Z" fill="black"/>
<path d="M153.147 44.703C152.874 44.7278 152.65 44.7776 152.451 44.7527C151.853 44.6781 151.256 44.5785 150.684 44.4293C150.41 44.3795 150.137 44.2302 150.211 43.8819C150.286 43.5584 150.584 43.5833 150.858 43.633C151.306 43.7077 151.729 43.7823 152.152 43.8819C152.575 43.9814 152.948 44.1804 153.147 44.703Z" fill="black"/>
<path d="M147.922 53.8345C148.096 53.8842 148.221 53.9091 148.295 53.9838C148.743 54.3819 149.216 54.78 149.614 55.203C149.738 55.3274 149.689 55.5762 149.714 55.7752C149.515 55.7504 149.266 55.8001 149.141 55.7006C148.619 55.3025 148.146 54.8546 147.648 54.4067C147.574 54.357 147.549 54.1579 147.599 54.1082C147.673 53.9838 147.823 53.9091 147.922 53.8345Z" fill="black"/>
<path d="M168.972 83.9656C168.997 83.6422 168.997 83.3187 169.071 83.0201C169.121 82.8459 169.295 82.6967 169.42 82.5474C169.544 82.7215 169.743 82.8708 169.743 83.045C169.768 83.4182 169.718 83.8163 169.644 84.1895C169.594 84.4384 169.445 84.7369 169.146 84.6374C169.047 84.6125 168.997 84.2642 168.947 84.09C168.972 84.0651 168.972 84.0154 168.972 83.9656Z" fill="black"/>
<path d="M135.556 16.2881C135.481 16.6613 135.208 16.8603 134.984 16.6862C134.735 16.4622 134.511 16.1636 134.387 15.8651C134.287 15.6162 134.586 15.3674 134.834 15.5416C135.108 15.7158 135.332 16.0144 135.556 16.2881Z" fill="black"/>
<path d="M51.3319 90.4844C51.0333 90.1609 50.8094 89.937 50.6103 89.6633C50.5854 89.6384 50.8094 89.4394 50.9338 89.3398C51.1577 89.5887 51.3816 89.8126 51.6056 90.0614C51.5807 90.0863 51.4563 90.2605 51.3319 90.4844Z" fill="black"/>
</svg>
